<svg xmlns="http://www.w3.org/2000/svg" viewBox="0 0 24 24"><path fill="#fff" d="m3 6h18v15h-18z"/><path fill="gray" d="m3 2c-.554 0-1 .446-1 1v18c0 .554.446 1 1 1h18c.554 0 1-.446 1-1v-18c0-.554-.446-1-1-1zm0 4h18v15h-18z"/><rect width="12" height="1" x="6" y="11" fill="gray" ry=".5"/><rect width="4" height="1" x="6" y="15" fill="#4d82b8" ry=".5"/><path fill="#4d82b8" d="m10.5 14a1.5 1.5 0 0 0 -1.5 1.5 1.5 1.5 0 0 0 1.5 1.5 1.5 1.5 0 0 0 1.5-1.5 1.5 1.5 0 0 0 -1.5-1.5zm0 1a.5.5 0 0 1 .5.5.5.5 0 0 1 -.5.5.5.5 0 0 1 -.5-.5.5.5 0 0 1 .5-.5z"/><path fill="gray" d="m13.5 10c-.828427 0-1.5.671573-1.5 1.5s.671573 1.5 1.5 1.5 1.5-.671573 1.5-1.5-.671573-1.5-1.5-1.5z"/><rect width="7" height="1" x="11" y="15" fill="#4d82b8" ry=".491"/><g fill="gray"><rect width="4" height="1" x="6" y="15" ry=".5"/><path d="m10.5 14a1.5 1.5 0 0 0 -1.5 1.5 1.5 1.5 0 0 0 1.5 1.5 1.5 1.5 0 0 0 1.5-1.5 1.5 1.5 0 0 0 -1.5-1.5zm0 1a.5.5 0 0 1 .5.5.5.5 0 0 1 -.5.5.5.5 0 0 1 -.5-.5.5.5 0 0 1 .5-.5z"/><rect width="7" height="1" x="11" y="15" ry=".491"/></g></svg>