<svg xmlns="http://www.w3.org/2000/svg" viewBox="0 0 24 24"><path fill="#fff" d="m5 3v18h14v-14.2705905l-4-3.7294095z"/><path fill="gray" d="m5 2c-.554 0-1 .446-1 1v18c0 .554.446 1 1 1h14c.554 0 1-.446 1-1v-10.109375-3.6412209-.2079239c0-.4506799.09887-.4265951-.604637-1.0675892l-3.307389-3.2370335c-.709525-.7368575-.711223-.7368575-1.094804-.7368575h-.331557-.661613zm0 1h9v4c0 .554.446 1 1 1h4v13h-14z"/><path fill="#fff" fill-rule="evenodd" d="m15 7h4l-4-4z"/><rect width="7" height="1" x="6" y="5" fill="gray" ry=".5"/><rect width="7" height="1" x="6" y="8" fill="gray" ry=".5"/><g fill="#4d82b8"><rect width="5" height="1" x="6" y="11" ry=".5"/><rect width="5" height="1" x="13" y="11" ry=".5"/><rect width="5" height="1" x="6" y="14" ry=".5"/><rect width="5" height="1" x="13" y="14" ry=".5"/></g><rect width="12" height="1" x="6" y="17" fill="gray" ry=".482"/></svg>