<svg xmlns="http://www.w3.org/2000/svg" viewBox="0 0 24 24"><path fill="#4d82b8" fill-rule="evenodd" d="m4.4879768 15.999939a.50005.50005 0 0 1 -.394531-.203125l-2.947266-2.951171a.50063809.50063809 0 1 1 .708985-.707032l2.142578 2.146485.0078-5.7851566a.50005.50005 0 1 1 1 0l-.0078 5.7851566 2.15039-2.146485a.50005.50005 0 1 1 .705078.708985l-2.960937 2.957031a.50005.50005 0 0 1 -.404297.195312z"/><g fill="gray" transform="scale(-1 1)"><rect width="19" height="1" x="-22" y="2" ry=".5"/><rect width="13" height="1" x="-22" y="10" ry=".5"/><rect width="19" height="1" x="-22" y="18" ry=".436"/><rect width="13" height="1" x="-16" y="21" ry=".398"/><rect width="7" height="1" x="-16" y="13" ry=".5"/><rect width="13" height="1" x="-16" y="5" ry=".5"/></g></svg>