<svg xmlns="http://www.w3.org/2000/svg" viewBox="0 0 24 24"><path fill="#fff" fill-rule="evenodd" d="m11.307716 20.638247 9.438078-5.638247-5.708126-10.3752563-9.9336041 5.8220523z"/><ellipse cx="12" cy="19.725" fill="none" rx="10" ry="2.275"/><path fill="#4d82b8" fill-rule="evenodd" d="m9 8h-5c-1 0-1 .217546-1 2.276478v5.723522c0 1 2 1 2 0v-6z"/><g fill="none" stroke="gray"><ellipse cx="4.963" cy="16.188" stroke-linecap="round" stroke-width=".951" rx="1.752" ry="1.741" transform="matrix(.86821741 -.49618397 .50382625 .86380502 0 0)"/><path stroke-linecap="round" stroke-width=".909" d="m12.488244 9.8063594v-5.2263907c0-2.8972803 5.493132-2.8080105 5.493132.1206297v4.9056967"/><path stroke-width=".896" d="m5.1040639 10.446796 5.3390121 9.387521c.410089.65506 1.069393.906864 1.704955.572463l7.748423-4.541322c.589382-.407352.86271-1.172428.486324-1.842477l-5.34511-9.3982373z"/></g></svg>